<svg width="30" height="30" viewBox="0 0 30 30" fill="none" xmlns="http://www.w3.org/2000/svg">
<path d="M0.452179 29.548C-0.150416 28.9454 -0.150416 27.9684 0.452179 27.3658L27.3659 0.45195C27.9685 -0.150649 28.9455 -0.15065 29.5481 0.451949C30.1506 1.05455 30.1506 2.03156 29.5481 2.63415L2.63437 29.548C2.03178 30.1506 1.05477 30.1506 0.452179 29.548Z" fill="#1E1F23"/>
<path d="M0.451946 0.45198C1.05454 -0.150619 2.03154 -0.150619 2.63414 0.45198L29.5478 27.3658C30.1504 27.9684 30.1504 28.9455 29.5478 29.5481C28.9452 30.1507 27.9682 30.1507 27.3656 29.5481L0.451947 2.63419C-0.150648 2.03159 -0.150649 1.05458 0.451946 0.45198Z" fill="#1E1F23"/>
</svg>
