<svg width="109" height="109" viewBox="0 0 109 109" fill="none" xmlns="http://www.w3.org/2000/svg">
<path d="M10.0833 31.5738C6.70474 34.5751 4.8595 38.8098 4.94861 43.3993L5.00858 46.0858L18.1616 72.4901L31.3146 98.8944L33.407 100.529C37.1124 103.476 41.988 104.523 46.4352 103.346C49.9385 102.44 95.2578 79.8647 98.0915 77.6142C101.71 74.7733 103.811 70.251 103.69 65.5176L103.646 62.8631L90.4933 36.4588L77.3403 10.0545L75.232 8.38837C71.3827 5.39237 66.3471 4.34548 61.7559 5.63389C60.6041 5.96798 50.7147 10.7345 35.7202 18.2438C15.941 28.0966 11.2521 30.5522 10.0833 31.5738ZM63.7757 13.0566C65.9352 12.5001 68.8926 13.1442 70.6334 14.5539C71.8313 15.5152 72.5808 16.9395 83.7728 39.4071C91.5849 55.0896 95.7296 63.7308 95.9041 64.6425C96.2693 66.418 95.5618 69.0075 94.2963 70.5567C93.3511 71.7066 91.8147 72.5518 68.899 83.967C45.5032 95.6214 44.4311 96.1155 42.992 96.1134C42.1765 96.0802 40.9135 95.8704 40.1784 95.5975C37.2537 94.5377 37.8119 95.498 24.6908 69.1578C13.3712 46.4341 12.6858 44.9779 12.6401 43.4428C12.5792 41.3958 13.8469 38.4075 15.3198 37.1944C17.0009 35.8377 61.5681 13.597 63.7757 13.0566Z" fill="#151515"/>
<path d="M75.9382 60.2474C73.5834 63.0582 75.0643 67.234 78.8047 68.247C81.5699 68.9867 84.5794 66.8484 84.8076 63.9384C85.0676 61.1724 82.8327 58.6106 80.1304 58.4786C78.3236 58.38 77.0756 58.9218 75.9382 60.2474Z" fill="#151515"/>
</svg>
