<svg width="31" height="48" viewBox="0 0 31 48" fill="none" xmlns="http://www.w3.org/2000/svg">
<path d="M2.159 4.18732C1.40515 5.7213 1.45072 7.33643 2.2957 9.0327C3.20446 10.857 5.4416 11.8997 7.53705 11.4551C11.168 10.7249 12.8053 6.5538 10.5869 3.6242C9.02298 1.52709 6.785 1.04403 4.3206 2.27165C3.21636 2.86166 2.5439 3.43632 2.159 4.18732Z" fill="#151515"/>
<path d="M11.1844 21.023C9.50236 23.0193 10.2802 26.8263 12.6606 28.317C15.5682 30.1442 19.8249 28.0238 20.2299 24.5065C20.8129 19.5822 14.4363 17.1261 11.1844 21.023Z" fill="#151515"/>
<path d="M20.0341 38.2261C18.8167 39.6315 18.5737 41.7099 19.4346 43.4382C20.7898 46.1586 23.4749 47.0581 26.2274 45.687C27.5396 45.0333 27.8119 44.6979 28.406 43.0838C28.7912 42.0929 28.985 40.798 28.8419 40.2701C28.3336 37.9666 26.0017 36.1722 23.6508 36.3446C22.0355 36.4701 21.1714 36.9006 20.0341 38.2261Z" fill="#151515"/>
</svg>
